<svg xmlns="http://www.w3.org/2000/svg" viewBox="0 0 100 100">
  <defs>
    <style>
      .snowflake { fill: #2a5298; }
    </style>
  </defs>
  <!-- 6-sided stellar dendrite snowflake -->
  <!-- Center hexagon -->
  <circle class="snowflake" cx="50" cy="50" r="6"/>
  
  <!-- 6 main branches at 60° intervals (0°, 60°, 120°, 180°, 240°, 300°) -->
  <!-- Branch 1: 0° (pointing up) -->
  <g class="snowflake">
    <rect x="48" y="8" width="4" height="42" rx="2"/>
    <!-- Dendrite side branches -->
    <rect x="48" y="18" width="4" height="12" rx="2" transform="rotate(45 50 24)"/>
    <rect x="48" y="18" width="4" height="12" rx="2" transform="rotate(-45 50 24)"/>
    <rect x="48" y="28" width="4" height="10" rx="2" transform="rotate(45 50 33)"/>
    <rect x="48" y="28" width="4" height="10" rx="2" transform="rotate(-45 50 33)"/>
  </g>
  
  <!-- Branch 2: 60° -->
  <g class="snowflake" transform="rotate(60 50 50)">
    <rect x="48" y="8" width="4" height="42" rx="2"/>
    <rect x="48" y="18" width="4" height="12" rx="2" transform="rotate(45 50 24)"/>
    <rect x="48" y="18" width="4" height="12" rx="2" transform="rotate(-45 50 24)"/>
    <rect x="48" y="28" width="4" height="10" rx="2" transform="rotate(45 50 33)"/>
    <rect x="48" y="28" width="4" height="10" rx="2" transform="rotate(-45 50 33)"/>
  </g>
  
  <!-- Branch 3: 120° -->
  <g class="snowflake" transform="rotate(120 50 50)">
    <rect x="48" y="8" width="4" height="42" rx="2"/>
    <rect x="48" y="18" width="4" height="12" rx="2" transform="rotate(45 50 24)"/>
    <rect x="48" y="18" width="4" height="12" rx="2" transform="rotate(-45 50 24)"/>
    <rect x="48" y="28" width="4" height="10" rx="2" transform="rotate(45 50 33)"/>
    <rect x="48" y="28" width="4" height="10" rx="2" transform="rotate(-45 50 33)"/>
  </g>
  
  <!-- Branch 4: 180° -->
  <g class="snowflake" transform="rotate(180 50 50)">
    <rect x="48" y="8" width="4" height="42" rx="2"/>
    <rect x="48" y="18" width="4" height="12" rx="2" transform="rotate(45 50 24)"/>
    <rect x="48" y="18" width="4" height="12" rx="2" transform="rotate(-45 50 24)"/>
    <rect x="48" y="28" width="4" height="10" rx="2" transform="rotate(45 50 33)"/>
    <rect x="48" y="28" width="4" height="10" rx="2" transform="rotate(-45 50 33)"/>
  </g>
  
  <!-- Branch 5: 240° -->
  <g class="snowflake" transform="rotate(240 50 50)">
    <rect x="48" y="8" width="4" height="42" rx="2"/>
    <rect x="48" y="18" width="4" height="12" rx="2" transform="rotate(45 50 24)"/>
    <rect x="48" y="18" width="4" height="12" rx="2" transform="rotate(-45 50 24)"/>
    <rect x="48" y="28" width="4" height="10" rx="2" transform="rotate(45 50 33)"/>
    <rect x="48" y="28" width="4" height="10" rx="2" transform="rotate(-45 50 33)"/>
  </g>
  
  <!-- Branch 6: 300° -->
  <g class="snowflake" transform="rotate(300 50 50)">
    <rect x="48" y="8" width="4" height="42" rx="2"/>
    <rect x="48" y="18" width="4" height="12" rx="2" transform="rotate(45 50 24)"/>
    <rect x="48" y="18" width="4" height="12" rx="2" transform="rotate(-45 50 24)"/>
    <rect x="48" y="28" width="4" height="10" rx="2" transform="rotate(45 50 33)"/>
    <rect x="48" y="28" width="4" height="10" rx="2" transform="rotate(-45 50 33)"/>
  </g>
</svg>
